<svg width="25" height="24" viewBox="0 0 25 24" fill="none" xmlns="http://www.w3.org/2000/svg">
<path d="M16.0799 12C16.0799 13.98 14.4799 15.58 12.4999 15.58C10.5199 15.58 8.91992 13.98 8.91992 12C8.91992 10.02 10.5199 8.42004 12.4999 8.42004C14.4799 8.42004 16.0799 10.02 16.0799 12Z" stroke="#757575" stroke-width="1.5" stroke-linecap="round" stroke-linejoin="round"/>
<path d="M12.5001 20.27C16.0301 20.27 19.3201 18.19 21.6101 14.59C22.5101 13.18 22.5101 10.81 21.6101 9.39997C19.3201 5.79997 16.0301 3.71997 12.5001 3.71997C8.97009 3.71997 5.68009 5.79997 3.39009 9.39997C2.49009 10.81 2.49009 13.18 3.39009 14.59C5.68009 18.19 8.97009 20.27 12.5001 20.27Z" stroke="#757575" stroke-width="1.5" stroke-linecap="round" stroke-linejoin="round"/>
</svg>
