<svg width="23" height="18" viewBox="0 0 23 18" fill="none" xmlns="http://www.w3.org/2000/svg">
<path fill-rule="evenodd" clip-rule="evenodd" d="M11.4377 0.4375C8.88215 0.4375 6.82945 2.4902 6.82945 5.04575C6.82945 7.60205 8.88198 9.65492 11.4377 9.65492C13.9934 9.65492 16.0459 7.60205 16.0459 5.04575C16.0459 2.4902 13.9932 0.4375 11.4377 0.4375ZM11.4377 1.9375C13.1648 1.9375 14.5459 3.31863 14.5459 5.04575C14.5459 6.77367 13.1649 8.15492 11.4377 8.15492C9.71046 8.15492 8.32945 6.77367 8.32945 5.04575C8.32945 3.31863 9.71058 1.9375 11.4377 1.9375ZM5.78993 1.37937C6.20414 1.37937 6.53993 1.71516 6.53993 2.12937C6.53993 2.54359 6.20414 2.87937 5.78993 2.87937C4.60156 2.87937 3.63776 3.84275 3.63776 5.03062C3.63776 6.2185 4.60156 7.18187 5.78993 7.18187C6.20414 7.18187 6.53993 7.51766 6.53993 7.93187C6.53993 8.34609 6.20414 8.68188 5.78993 8.68188C3.77328 8.68188 2.13776 7.04707 2.13776 5.03062C2.13776 3.01418 3.77328 1.37937 5.78993 1.37937ZM20.747 5.03062C20.747 3.01418 19.1115 1.37937 17.0948 1.37937C16.6806 1.37937 16.3448 1.71516 16.3448 2.12937C16.3448 2.54359 16.6806 2.87937 17.0948 2.87937C18.2832 2.87937 19.247 3.84275 19.247 5.03062C19.247 6.2185 18.2832 7.18187 17.0948 7.18187C16.6806 7.18187 16.3448 7.51766 16.3448 7.93187C16.3448 8.34609 16.6806 8.68188 17.0948 8.68188C19.1115 8.68188 20.747 7.04707 20.747 5.03062ZM19.9958 10.555C19.5156 10.4466 19.0024 10.3725 18.4806 10.3365C18.0674 10.308 17.7093 10.6199 17.6808 11.0331C17.6523 11.4464 17.9642 11.8045 18.3774 11.833C18.8239 11.8638 19.2615 11.9269 19.687 12.0227C20.3487 12.1525 20.7801 12.3678 20.8872 12.5921C20.9677 12.7615 20.9677 12.9606 20.8864 13.132C20.7807 13.3541 20.3529 13.5682 19.7006 13.7024C19.2949 13.7858 19.0336 14.1823 19.1171 14.5881C19.2005 14.9938 19.597 15.2551 20.0028 15.1716C21.0809 14.9499 21.8708 14.5546 22.2413 13.7756C22.516 13.1964 22.516 12.5247 22.2414 11.947C21.8682 11.1651 21.0648 10.7643 19.9958 10.555ZM5.20394 11.0331C5.17544 10.6199 4.81735 10.308 4.40412 10.3365C3.88233 10.3725 3.36916 10.4466 2.86839 10.5593L2.66194 10.603C1.71432 10.8195 0.991367 11.2174 0.644354 11.9469C0.3685 12.5241 0.3685 13.197 0.644645 13.7762C1.01357 14.5544 1.80334 14.9498 2.88199 15.1716C3.28771 15.2551 3.68425 14.9938 3.76768 14.5881C3.85111 14.1823 3.58984 13.7858 3.18412 13.7024C2.53203 13.5683 2.10466 13.3543 1.99933 13.1321C1.91727 12.96 1.91727 12.7621 1.99832 12.5925C2.10531 12.3676 2.53627 12.1525 3.17715 12.027L3.51038 11.9588C3.84256 11.8974 4.17243 11.8561 4.50732 11.833C4.92055 11.8045 5.23244 11.4464 5.20394 11.0331ZM4.66703 14.1845C4.66703 11.7986 7.13497 10.9595 11.4377 10.9595L11.7425 10.961C15.8655 10.9997 18.2084 11.8407 18.2084 14.1671C18.2084 16.4388 15.9688 17.3087 12.0397 17.3863L11.4377 17.3921C7.1251 17.3921 4.66703 16.5678 4.66703 14.1845ZM16.7084 14.1671C16.7084 13.0566 14.9278 12.4595 11.4377 12.4595C7.95099 12.4595 6.16703 13.0661 6.16703 14.1845C6.16703 15.2952 7.94701 15.8921 11.4377 15.8921C14.9234 15.8921 16.7084 15.2851 16.7084 14.1671Z" fill="#757575"/>
</svg>
