<svg width="25" height="24" viewBox="0 0 25 24" fill="none" xmlns="http://www.w3.org/2000/svg">
<path fill-rule="evenodd" clip-rule="evenodd" d="M17.018 6.06003C16.9068 3.66086 14.9269 1.74992 12.5009 1.74992C10.0152 1.73922 7.98716 3.73941 7.96112 6.22426H7.75778C4.99177 6.22426 2.75 8.46476 2.75 11.2293V16.7453C2.75 19.5098 4.99177 21.7503 7.75778 21.7503H17.2422C20.0082 21.7503 22.25 19.5098 22.25 16.7453V11.2293C22.25 8.46476 20.0082 6.22426 17.2422 6.22426H17.0218L17.018 6.06003ZM15.5229 7.72426V9.30496L15.5297 9.40673C15.5794 9.7728 15.8932 10.055 16.2729 10.055C16.6871 10.055 17.0229 9.71917 17.0229 9.30496V7.72426H17.2422C19.18 7.72426 20.75 9.29337 20.75 11.2293V16.7453C20.75 18.6811 19.18 20.2503 17.2422 20.2503H7.75778C5.82 20.2503 4.25 18.6811 4.25 16.7453V11.2293C4.25 9.29337 5.82 7.72426 7.75778 7.72426H7.9609L7.9609 9.30496L7.96775 9.40673C8.01741 9.7728 8.3312 10.055 8.7109 10.055C9.12511 10.055 9.4609 9.71917 9.4609 9.30496V7.72426H15.5229ZM15.5225 6.22426C15.4965 4.57705 14.1535 3.24992 12.4977 3.24991C10.8872 3.24299 9.5656 4.49527 9.4668 6.0787L9.46195 6.22426H15.5225Z" fill="#828282"/>
</svg>
