<svg width="25" height="24" viewBox="0 0 25 24" fill="none" xmlns="http://www.w3.org/2000/svg">
<path d="M19.8 7.92002V13.07C19.8 16.15 18.04 17.47 15.4 17.47H6.60996C6.15996 17.47 5.72996 17.43 5.32996 17.34C5.07996 17.3 4.83996 17.23 4.61996 17.15C3.11996 16.59 2.20996 15.29 2.20996 13.07V7.92002C2.20996 4.84002 3.96996 3.52002 6.60996 3.52002H15.4C17.64 3.52002 19.25 4.47002 19.68 6.64002C19.75 7.04002 19.8 7.45002 19.8 7.92002Z" stroke="#757577" stroke-width="1.5" stroke-miterlimit="10" stroke-linecap="round" stroke-linejoin="round"/>
<path d="M22.8011 10.92V16.07C22.8011 19.15 21.0411 20.47 18.4011 20.47H9.61105C8.87105 20.47 8.20105 20.37 7.62105 20.15C6.43105 19.71 5.62105 18.8 5.33105 17.34C5.73105 17.43 6.16105 17.47 6.61105 17.47H15.4011C18.0411 17.47 19.8011 16.15 19.8011 13.07V7.92001C19.8011 7.45001 19.7611 7.03001 19.6811 6.64001C21.5811 7.04001 22.8011 8.38001 22.8011 10.92V10.92Z" stroke="#757577" stroke-width="1.5" stroke-miterlimit="10" stroke-linecap="round" stroke-linejoin="round"/>
<path d="M5.28003 8.29999V12.7M16.722 8.29999V12.7M10.998 13.14C11.6982 13.14 12.3697 12.8618 12.8648 12.3667C13.3599 11.8717 13.638 11.2002 13.638 10.5C13.638 9.79981 13.3599 9.12832 12.8648 8.63322C12.3697 8.13813 11.6982 7.85999 10.998 7.85999C10.2979 7.85999 9.62636 8.13813 9.13127 8.63322C8.63617 9.12832 8.35803 9.79981 8.35803 10.5C8.35803 11.2002 8.63617 11.8717 9.13127 12.3667C9.62636 12.8618 10.2979 13.14 10.998 13.14V13.14Z" stroke="#757577" stroke-width="1.5" stroke-miterlimit="10" stroke-linecap="round" stroke-linejoin="round"/>
</svg>
