<svg width="25" height="24" viewBox="0 0 25 24" fill="none" xmlns="http://www.w3.org/2000/svg">
<path d="M8.87988 12L11.2899 14.42L16.1199 9.57996" stroke="#757577" stroke-width="1.5" stroke-linecap="round" stroke-linejoin="round"/>
<path d="M11.2499 2.44995C11.9399 1.85995 13.0699 1.85995 13.7699 2.44995L15.3499 3.80995C15.6499 4.06995 16.2099 4.27995 16.6099 4.27995H18.3099C19.3699 4.27995 20.2399 5.14995 20.2399 6.20995V7.90995C20.2399 8.29995 20.4499 8.86995 20.7099 9.16995L22.0699 10.7499C22.6599 11.4399 22.6599 12.5699 22.0699 13.2699L20.7099 14.8499C20.4499 15.1499 20.2399 15.7099 20.2399 16.1099V17.8099C20.2399 18.8699 19.3699 19.7399 18.3099 19.7399H16.6099C16.2199 19.7399 15.6499 19.9499 15.3499 20.2099L13.7699 21.5699C13.0799 22.1599 11.9499 22.1599 11.2499 21.5699L9.66988 20.2099C9.36988 19.9499 8.80988 19.7399 8.40988 19.7399H6.67988C5.61988 19.7399 4.74988 18.8699 4.74988 17.8099V16.0999C4.74988 15.7099 4.53988 15.1499 4.28988 14.8499L2.93988 13.2599C2.35988 12.5699 2.35988 11.4499 2.93988 10.7599L4.28988 9.16995C4.53988 8.86995 4.74988 8.30995 4.74988 7.91995V6.19995C4.74988 5.13995 5.61988 4.26995 6.67988 4.26995H8.40988C8.79988 4.26995 9.36988 4.05995 9.66988 3.79995L11.2499 2.44995V2.44995Z" stroke="#757577" stroke-width="1.5" stroke-linecap="round" stroke-linejoin="round"/>
</svg>
