<svg width="21" height="20" viewBox="0 0 21 20" fill="none" xmlns="http://www.w3.org/2000/svg">
<path d="M6.42 0H3.04C1.64 0 0.5 1.15 0.5 2.561V5.97C0.5 7.39 1.64 8.53 3.04 8.53H6.42C7.83 8.53 8.96 7.39 8.96 5.97V2.561C8.96 1.15 7.83 0 6.42 0Z" fill="#31D0F4"/>
<path d="M6.42 11.4697H3.04C1.64 11.4697 0.5 12.6107 0.5 14.0307V17.4397C0.5 18.8497 1.64 19.9997 3.04 19.9997H6.42C7.83 19.9997 8.96 18.8497 8.96 17.4397V14.0307C8.96 12.6107 7.83 11.4697 6.42 11.4697Z" fill="#31D0F4"/>
<path d="M17.96 0H14.58C13.17 0 12.04 1.15 12.04 2.561V5.97C12.04 7.39 13.17 8.53 14.58 8.53H17.96C19.36 8.53 20.5 7.39 20.5 5.97V2.561C20.5 1.15 19.36 0 17.96 0Z" fill="#31D0F4"/>
<path d="M17.96 11.4697H14.58C13.17 11.4697 12.04 12.6107 12.04 14.0307V17.4397C12.04 18.8497 13.17 19.9997 14.58 19.9997H17.96C19.36 19.9997 20.5 18.8497 20.5 17.4397V14.0307C20.5 12.6107 19.36 11.4697 17.96 11.4697Z" fill="#31D0F4" fill-opacity="0.4"/>
</svg>
