<svg width="25" height="24" viewBox="0 0 25 24" fill="none" xmlns="http://www.w3.org/2000/svg">
<path fill-rule="evenodd" clip-rule="evenodd" d="M6.44945 2.5C4.26837 2.5 2.5 4.26322 2.5 6.43714C2.5 8.61016 4.26859 10.3732 6.44945 10.3732C8.63031 10.3732 10.3989 8.61016 10.3989 6.43714C10.3989 4.26322 8.63052 2.5 6.44945 2.5ZM6.44945 4.00741C7.795 4.00741 8.88634 5.09557 8.88634 6.43714C8.88634 7.77772 7.79487 8.86575 6.44945 8.86575C5.10403 8.86575 4.01255 7.77772 4.01255 6.43714C4.01255 5.09557 5.1039 4.00741 6.44945 4.00741ZM22.4997 6.43714C22.4997 6.02088 22.1611 5.68343 21.7434 5.68343H14.0652L13.9626 5.69031C13.5935 5.74022 13.3089 6.05557 13.3089 6.43714C13.3089 6.8534 13.6475 7.19085 14.0652 7.19085H21.7434L21.846 7.18397C22.2151 7.13406 22.4997 6.81871 22.4997 6.43714ZM14.6011 17.564C14.6011 15.3902 16.3693 13.628 18.5506 13.628C20.7318 13.628 22.5 15.3902 22.5 17.564C22.5 19.7378 20.7318 21.5 18.5506 21.5C16.3693 21.5 14.6011 19.7378 14.6011 17.564ZM20.9874 17.564C20.9874 16.2227 19.8964 15.1354 18.5506 15.1354C17.2047 15.1354 16.1137 16.2227 16.1137 17.564C16.1137 18.9052 17.2047 19.9926 18.5506 19.9926C19.8964 19.9926 20.9874 18.9052 20.9874 17.564ZM11.6912 17.564C11.6912 17.1477 11.3526 16.8103 10.9349 16.8103H3.25673L3.1541 16.8171C2.78496 16.8671 2.50045 17.1824 2.50045 17.564C2.50045 17.9802 2.83904 18.3177 3.25673 18.3177H10.9349L11.0375 18.3108C11.4067 18.2609 11.6912 17.9455 11.6912 17.564Z" fill="#757575"/>
</svg>
