<svg width="21" height="20" viewBox="0 0 21 20" fill="none" xmlns="http://www.w3.org/2000/svg">
<path fill-rule="evenodd" clip-rule="evenodd" d="M6.31204 0.5H14.688C17.8978 0.5 20.5 3.16116 20.5 6.44374V7.18592L20.5002 7.20241L20.5 7.21891V12.5201L20.5002 12.5366L20.5 12.5531V13.5563C20.5 16.8388 17.8978 19.5 14.688 19.5H6.31204C3.10219 19.5 0.5 16.8388 0.5 13.5563V6.44374C0.5 3.16116 3.10219 0.5 6.31204 0.5ZM19.0464 6.44374V6.45916H15.8504L15.6673 6.46431C13.9101 6.56244 12.5147 8.04914 12.5147 9.86949C12.5159 11.7531 14.0084 13.2787 15.8499 13.2798H19.0464V13.5563C19.0464 16.0179 17.095 18.0135 14.688 18.0135H6.31204C3.90498 18.0135 1.95358 16.0179 1.95358 13.5563V6.44374C1.95358 3.98214 3.90498 1.98651 6.31204 1.98651H14.688C17.095 1.98651 19.0464 3.98214 19.0464 6.44374ZM15.8508 7.94567L19.0464 7.94567V11.7933H15.8504L15.7033 11.7874C14.7329 11.7102 13.9689 10.8811 13.9683 9.86904C13.9683 8.80743 14.8109 7.94632 15.8508 7.94567ZM17.021 9.80844C17.021 9.39795 16.6956 9.06518 16.2942 9.06518H15.9921L15.8935 9.07196C15.5388 9.12118 15.2653 9.43215 15.2653 9.80844C15.2653 10.2189 15.5907 10.5517 15.9921 10.5517H16.2942L16.3928 10.5449C16.7475 10.4957 17.021 10.1847 17.021 9.80844ZM11.5807 5.74062C11.5807 5.33013 11.2553 4.99736 10.8539 4.99736H5.62203L5.5234 5.00415C5.16866 5.05337 4.89524 5.36434 4.89524 5.74062C4.89524 6.15111 5.22063 6.48388 5.62203 6.48388H10.8539L10.9525 6.47709C11.3073 6.42788 11.5807 6.1169 11.5807 5.74062Z" fill="#757575"/>
</svg>
